<svg width="377" height="70" viewBox="0 0 377 70" fill="none" xmlns="http://www.w3.org/2000/svg">
<path d="M61.5558 25.043H47.0906C46.8264 23.1715 46.2869 21.5092 45.4723 20.0561C44.6577 18.581 43.6119 17.326 42.3349 16.2912C41.0579 15.2564 39.5827 14.4638 37.9094 13.9134C36.2582 13.3629 34.4638 13.0877 32.5263 13.0877C29.0256 13.0877 25.9762 13.9574 23.3782 15.6967C20.7802 17.4141 18.7656 19.924 17.3345 23.2266C15.9034 26.5071 15.1879 30.4922 15.1879 35.1818C15.1879 40.0035 15.9034 44.0547 17.3345 47.3352C18.7876 50.6158 20.8132 53.0927 23.4112 54.766C26.0092 56.4393 29.0146 57.2759 32.4272 57.2759C34.3427 57.2759 36.1151 57.0227 37.7443 56.5163C39.3956 56.0099 40.8597 55.2724 42.1367 54.3036C43.4137 53.3129 44.4705 52.1129 45.3072 50.7038C46.1658 49.2947 46.7603 47.6875 47.0906 45.8821L61.5558 45.9482C61.1815 49.0526 60.2457 52.0469 58.7486 54.9311C57.2734 57.7933 55.2809 60.3583 52.771 62.6261C50.283 64.8718 47.3107 66.6552 43.8541 67.9762C40.4194 69.2752 36.5334 69.9247 32.196 69.9247C26.1634 69.9247 20.7692 68.5597 16.0135 65.8295C11.2798 63.0994 7.53693 59.1474 4.7848 53.9734C2.05469 48.7994 0.689631 42.5355 0.689631 35.1818C0.689631 27.8061 2.0767 21.5312 4.85085 16.3572C7.625 11.1832 11.3899 7.24219 16.1456 4.53409C20.9013 1.80398 26.2514 0.438918 32.196 0.438918C36.1151 0.438918 39.7479 0.989344 43.0945 2.0902C46.4631 3.19105 49.4464 4.79829 52.0444 6.91193C54.6424 9.00355 56.756 11.5685 58.3853 14.6069C60.0366 17.6452 61.0934 21.1239 61.5558 25.043ZM86.0112 69.9577C82.7747 69.9577 79.8904 69.3963 77.3585 68.2734C74.8265 67.1286 72.823 65.4442 71.3478 63.2205C69.8947 60.9748 69.1681 58.1786 69.1681 54.832C69.1681 52.0138 69.6855 49.647 70.7203 47.7315C71.7551 45.8161 73.1642 44.2749 74.9476 43.108C76.731 41.9411 78.7566 41.0604 81.0243 40.4659C83.3141 39.8714 85.714 39.4531 88.2239 39.2109C91.1742 38.9027 93.552 38.6165 95.3574 38.3523C97.1628 38.0661 98.4728 37.6477 99.2875 37.0973C100.102 36.5469 100.509 35.7322 100.509 34.6534V34.4553C100.509 32.3636 99.8489 30.7454 98.5279 29.6005C97.2289 28.4556 95.3794 27.8832 92.9796 27.8832C90.4476 27.8832 88.4331 28.4446 86.9359 29.5675C85.4387 30.6683 84.448 32.0554 83.9636 33.7287L70.9515 32.6719C71.612 29.5895 72.911 26.9254 74.8485 24.6797C76.786 22.4119 79.285 20.6726 82.3453 19.4616C85.4277 18.2287 88.9945 17.6122 93.0456 17.6122C95.8638 17.6122 98.5609 17.9425 101.137 18.603C103.735 19.2635 106.036 20.2873 108.039 21.6744C110.065 23.0614 111.661 24.8448 112.828 27.0245C113.995 29.1822 114.578 31.7692 114.578 34.7855V69H101.236V61.9656H100.84C100.025 63.5508 98.9352 64.9489 97.5701 66.1598C96.2051 67.3487 94.5648 68.2844 92.6493 68.967C90.7338 69.6275 88.5211 69.9577 86.0112 69.9577ZM90.0403 60.2482C92.1099 60.2482 93.9373 59.8409 95.5225 59.0263C97.1078 58.1896 98.3517 57.0668 99.2544 55.6577C100.157 54.2486 100.608 52.6523 100.608 50.869V45.4858C100.168 45.772 99.5627 46.0362 98.7921 46.2784C98.0435 46.4986 97.1958 46.7077 96.2491 46.9059C95.3024 47.082 94.3556 47.2472 93.4089 47.4013C92.4622 47.5334 91.6035 47.6545 90.8329 47.7646C89.1816 48.0067 87.7395 48.392 86.5066 48.9205C85.2736 49.4489 84.3159 50.1644 83.6333 51.0671C82.9508 51.9478 82.6096 53.0486 82.6096 54.3697C82.6096 56.2852 83.3031 57.7493 84.6902 58.7621C86.0993 59.7528 87.8826 60.2482 90.0403 60.2482ZM152.475 18.2727V28.8409H121.926V18.2727H152.475ZM128.862 6.11932H142.931V53.4119C142.931 54.7109 143.129 55.7237 143.525 56.4503C143.922 57.1548 144.472 57.6502 145.176 57.9364C145.903 58.2227 146.74 58.3658 147.686 58.3658C148.347 58.3658 149.007 58.3107 149.668 58.2006C150.328 58.0685 150.835 57.9695 151.187 57.9034L153.4 68.3725C152.695 68.5927 151.705 68.8459 150.428 69.1321C149.151 69.4403 147.598 69.6275 145.771 69.6935C142.38 69.8256 139.408 69.3743 136.854 68.3395C134.322 67.3047 132.352 65.6974 130.942 63.5178C129.533 61.3381 128.84 58.5859 128.862 55.2614V6.11932ZM184.015 69.9908C178.819 69.9908 174.349 68.8899 170.606 66.6882C166.885 64.4645 164.023 61.3821 162.02 57.4411C160.038 53.5 159.047 48.9645 159.047 43.8345C159.047 38.6385 160.049 34.081 162.053 30.1619C164.078 26.2209 166.951 23.1495 170.672 20.9478C174.393 18.7241 178.819 17.6122 183.949 17.6122C188.374 17.6122 192.249 18.4158 195.574 20.0231C198.898 21.6303 201.529 23.8871 203.467 26.7933C205.404 29.6996 206.472 33.1122 206.67 37.0312H193.394C193.02 34.4993 192.029 32.4627 190.422 30.9215C188.836 29.3583 186.756 28.5767 184.18 28.5767C182 28.5767 180.096 29.1712 178.466 30.3601C176.859 31.527 175.604 33.2333 174.701 35.479C173.799 37.7248 173.347 40.4439 173.347 43.6364C173.347 46.8729 173.788 49.625 174.668 51.8928C175.571 54.1605 176.837 55.8888 178.466 57.0778C180.096 58.2667 182 58.8612 184.18 58.8612C185.787 58.8612 187.229 58.5309 188.506 57.8704C189.805 57.2099 190.873 56.2521 191.71 54.9972C192.568 53.7202 193.13 52.19 193.394 50.4066H206.67C206.45 54.2816 205.393 57.6942 203.5 60.6445C201.628 63.5728 199.041 65.8626 195.739 67.5138C192.436 69.1651 188.528 69.9908 184.015 69.9908ZM229.747 39.6733V69H215.678V1.36363H229.35V27.2227H229.945C231.09 24.2283 232.939 21.8835 235.493 20.1882C238.047 18.4709 241.251 17.6122 245.104 17.6122C248.626 17.6122 251.698 18.3828 254.318 19.924C256.96 21.4432 259.007 23.6339 260.46 26.4961C261.936 29.3363 262.662 32.7379 262.64 36.701V69H248.571V39.2109C248.593 36.0845 247.801 33.6516 246.193 31.9123C244.608 30.1729 242.385 29.3033 239.522 29.3033C237.607 29.3033 235.911 29.7106 234.436 30.5252C232.983 31.3398 231.838 32.5288 231.002 34.092C230.187 35.6332 229.769 37.4936 229.747 39.6733Z" fill="black"/>
<path d="M332.101 47.104V18.2727H348.218V69H332.828V59.5547H332.299C331.176 62.6591 329.261 65.125 326.553 66.9524C323.867 68.7578 320.619 69.6605 316.81 69.6605C313.354 69.6605 310.315 68.8679 307.695 67.2827C305.075 65.6974 303.039 63.4847 301.586 60.6445C300.132 57.7823 299.395 54.4357 299.373 50.6048V18.2727H315.522V47.4343C315.544 50.1864 316.271 52.3551 317.702 53.9403C319.133 55.5256 321.082 56.3182 323.548 56.3182C325.155 56.3182 326.597 55.9659 327.874 55.2614C329.173 54.5348 330.197 53.489 330.945 52.1239C331.716 50.7369 332.101 49.0636 332.101 47.104ZM367.579 69.9577C365.201 69.9577 363.165 69.1211 361.469 67.4478C359.796 65.7745 358.97 63.7489 358.992 61.3711C358.97 59.0373 359.796 57.0447 361.469 55.3935C363.165 53.7202 365.201 52.8835 367.579 52.8835C369.825 52.8835 371.806 53.7202 373.524 55.3935C375.263 57.0447 376.144 59.0373 376.166 61.3711C376.144 62.9563 375.725 64.3984 374.911 65.6974C374.118 66.9964 373.072 68.0312 371.773 68.8018C370.496 69.5724 369.098 69.9577 367.579 69.9577Z" fill="#9DDCFC"/>
</svg>
