<svg width="292" height="292" viewBox="0 0 292 292" fill="none" xmlns="http://www.w3.org/2000/svg">
<g filter="url(#filter0_d_487_9671)">
<path d="M121.843 29.3541C134.358 14.1469 157.643 14.1469 170.158 29.354L175.637 36.0117C182.257 44.0565 192.448 48.2777 202.818 47.2706L211.4 46.4372C231.002 44.5334 247.467 60.9981 245.563 80.6005L244.73 89.1825C243.723 99.5525 247.944 109.743 255.989 116.364L262.646 121.843C277.854 134.358 277.854 157.642 262.646 170.157L255.989 175.636C247.944 182.257 243.723 192.448 244.73 202.818L245.563 211.399C247.467 231.002 231.002 247.467 211.4 245.563L202.818 244.729C192.448 243.722 182.257 247.943 175.637 255.988L170.158 262.646C157.643 277.853 134.358 277.853 121.843 262.646L116.364 255.988C109.744 247.943 99.553 243.722 89.1831 244.729L80.601 245.563C60.9986 247.467 44.534 231.002 46.4377 211.399L47.2712 202.818C48.2783 192.448 44.0571 182.257 36.0123 175.636L29.3546 170.157C14.1474 157.642 14.1474 134.358 29.3546 121.843L36.0123 116.364C44.0571 109.743 48.2783 99.5524 47.2712 89.1825L46.4377 80.6005C44.534 60.9981 60.9986 44.5334 80.6011 46.4372L89.1831 47.2706C99.553 48.2777 109.744 44.0565 116.364 36.0117L121.843 29.3541Z" fill="#FFE600" stroke="#FFE600" stroke-width="2"/>
<g filter="url(#filter1_d_487_9671)">
<path d="M104.285 151.214L135.571 182.5L203.357 114.714" stroke="white" stroke-width="7" stroke-linecap="round" stroke-linejoin="round"/>
</g>
</g>
<defs>
<filter id="filter0_d_487_9671" x="-16" y="-16" width="324" height="324" filterUnits="userSpaceOnUse" color-interpolation-filters="sRGB">
<feFlood flood-opacity="0" result="BackgroundImageFix"/>
<feColorMatrix in="SourceAlpha" type="matrix" values="0 0 0 0 0 0 0 0 0 0 0 0 0 0 0 0 0 0 127 0" result="hardAlpha"/>
<feOffset/>
<feGaussianBlur stdDeviation="8"/>
<feComposite in2="hardAlpha" operator="out"/>
<feColorMatrix type="matrix" values="0 0 0 0 1 0 0 0 0 0.901961 0 0 0 0 0 0 0 0 0.3 0"/>
<feBlend mode="normal" in2="BackgroundImageFix" result="effect1_dropShadow_487_9671"/>
<feBlend mode="normal" in="SourceGraphic" in2="effect1_dropShadow_487_9671" result="shape"/>
</filter>
<filter id="filter1_d_487_9671" x="98.7852" y="109.214" width="110.072" height="78.7857" filterUnits="userSpaceOnUse" color-interpolation-filters="sRGB">
<feFlood flood-opacity="0" result="BackgroundImageFix"/>
<feColorMatrix in="SourceAlpha" type="matrix" values="0 0 0 0 0 0 0 0 0 0 0 0 0 0 0 0 0 0 127 0" result="hardAlpha"/>
<feOffset/>
<feGaussianBlur stdDeviation="1"/>
<feComposite in2="hardAlpha" operator="out"/>
<feColorMatrix type="matrix" values="0 0 0 0 0 0 0 0 0 0.333333 0 0 0 0 0.520833 0 0 0 0.4 0"/>
<feBlend mode="normal" in2="BackgroundImageFix" result="effect1_dropShadow_487_9671"/>
<feBlend mode="normal" in="SourceGraphic" in2="effect1_dropShadow_487_9671" result="shape"/>
</filter>
</defs>
</svg>
